G04*
G04 #@! TF.GenerationSoftware,Altium Limited,Altium Designer,23.9.2 (47)*
G04*
G04 Layer_Color=32768*
%FSLAX24Y24*%
%MOIN*%
G70*
G04*
G04 #@! TF.SameCoordinates,AAFFF98D-1960-493D-9132-569EA71A65ED*
G04*
G04*
G04 #@! TF.FilePolarity,Positive*
G04*
G01*
G75*
%ADD11C,0.0079*%
%ADD14C,0.0100*%
%ADD69C,0.0118*%
D11*
X14647Y33325D02*
Y33825D01*
X14397Y33575D02*
X14897D01*
X17710Y32577D02*
Y33077D01*
X17460Y32827D02*
X17960D01*
X11584Y3695D02*
Y4195D01*
X11334Y3945D02*
X11834D01*
X9397Y34157D02*
X9897D01*
X9647Y33907D02*
Y34407D01*
X19397Y2614D02*
X19897D01*
X19647Y2364D02*
Y2864D01*
X14647Y2947D02*
Y3447D01*
X14397Y3197D02*
X14897D01*
X20492Y33575D02*
X20992D01*
X20742Y33325D02*
Y33825D01*
X20492Y32079D02*
X20992D01*
X20742Y31829D02*
Y32329D01*
X8303Y3197D02*
X8803D01*
X8553Y2947D02*
Y3447D01*
X8303Y4693D02*
X8803D01*
X8553Y4443D02*
Y4943D01*
X10950Y30516D02*
X11344D01*
X11147Y30319D02*
Y30713D01*
X17950Y6256D02*
X18344D01*
X18147Y6059D02*
Y6453D01*
D14*
X14397Y32079D02*
X14897D01*
X14647Y31829D02*
Y32329D01*
X16523Y31016D02*
X17023D01*
X16773Y30766D02*
Y31266D01*
X15397Y30016D02*
X15897D01*
X15647Y29766D02*
Y30266D01*
X13397Y6756D02*
X13897D01*
X13647Y6506D02*
Y7006D01*
X14397Y4693D02*
X14897D01*
X14647Y4443D02*
Y4943D01*
X12271Y5756D02*
X12771D01*
X12521Y5506D02*
Y6006D01*
X10947Y30016D02*
X11347D01*
X11147Y29816D02*
Y30216D01*
X17947Y6756D02*
X18347D01*
X18147Y6556D02*
Y6956D01*
D69*
X16647Y28191D02*
Y28691D01*
X16397Y28441D02*
X16897D01*
X12647Y8081D02*
Y8581D01*
X12397Y8331D02*
X12897D01*
M02*
