M48
;Layer_Color=9474304
;FILE_FORMAT=2:4
INCH,TZ
;TYPE=PLATED
T01F00S00C0.0276
T02F00S00C0.0315
T03F00S00C0.0354
T04F00S00C0.0394
T05F00S00C0.0472
T06F00S00C0.0591
T07F00S00C0.0630
T08F00S00C0.1969
;TYPE=NON_PLATED
%
T01
X11584Y3197
Y4693
X15647Y8331
X16435
X13647Y28441
X12860
X17710Y32079
Y33575
T02
X11647Y8331
X12647
X13647
X15647Y28441
X16647
X17647
T03
X12647Y3197
Y4693
X14521Y5756
X15647Y6756
X16647
Y5756
Y4693
Y3197
X19647Y4614
Y5756
Y6756
Y614
X11647Y6756
X10521Y5756
X9647Y30016
Y31016
X12647
Y30016
X13647Y30016
X14773Y31016
X17647Y30016
X18773Y31016
X16647Y32079
Y33575
X12647
Y32079
X9647Y32157
Y36157
T04
X15647Y803
Y1803
X21419Y2197
Y3197
X13647Y34969
Y35968
X7876Y34575
Y33575
T05
X10521Y3197
Y4693
X6584
Y3197
X18773Y32079
Y33575
X22710
Y32079
T06
X23159Y15449
X6135Y15449
Y17417
Y19386
Y21354
Y23323
X23159Y23323
Y21354
Y19386
Y17417
T07
X11647Y13449
X13647Y15449
X15647Y13449
X15647Y21323
X17647Y23323
X13647
T08
X27362Y1969
X1969
X27362Y34803
X1969
M30
