G04*
G04 #@! TF.GenerationSoftware,Altium Limited,Altium Designer,23.9.2 (47)*
G04*
G04 Layer_Physical_Order=2*
G04 Layer_Color=16711680*
%FSLAX24Y24*%
%MOIN*%
G70*
G04*
G04 #@! TF.SameCoordinates,AAFFF98D-1960-493D-9132-569EA71A65ED*
G04*
G04*
G04 #@! TF.FilePolarity,Positive*
G04*
G01*
G75*
%ADD47C,0.0394*%
%ADD48C,0.1181*%
%ADD49R,0.0472X0.0669*%
%ADD50R,0.0984X0.0984*%
%ADD51O,0.0591X0.0394*%
%ADD52C,0.0787*%
%ADD53R,0.1181X0.0591*%
%ADD54O,0.0472X0.0669*%
%ADD55C,0.0709*%
%ADD56O,0.1181X0.0591*%
%ADD57R,0.1575X0.1575*%
%ADD58C,0.1575*%
%ADD59R,0.0591X0.0394*%
%ADD60O,0.0472X0.0787*%
%ADD61R,0.1575X0.1575*%
%ADD62C,0.0984*%
%ADD63R,0.0709X0.0709*%
%ADD64C,0.2362*%
%ADD65R,0.0492X0.0492*%
D47*
X16435Y8331D02*
X18059D01*
X18647Y7743D01*
Y6756D02*
Y7743D01*
X15647Y803D02*
X17707D01*
X18647Y1743D01*
Y6756D01*
X12647Y1993D02*
Y3197D01*
Y1993D02*
X13837Y803D01*
X15647D01*
X11184Y28441D02*
X12860D01*
X10647Y28978D02*
X11184Y28441D01*
X10647Y28978D02*
Y30016D01*
X11608Y35968D02*
X13647D01*
X10647Y35007D02*
X11608Y35968D01*
X10647Y30016D02*
Y35007D01*
X16647Y33575D02*
Y34978D01*
X15656Y35968D02*
X16647Y34978D01*
X13647Y35968D02*
X15656D01*
X16647Y6756D02*
X17647D01*
X16647Y6756D02*
X16647Y6756D01*
X12647Y30016D02*
X12647Y30016D01*
X11647Y30016D02*
X12647D01*
X15378Y3197D02*
X16647D01*
X14521Y4054D02*
X15378Y3197D01*
X14521Y4054D02*
Y5756D01*
X12647Y33575D02*
X13900D01*
X14773Y32702D01*
Y31016D02*
Y32702D01*
Y28852D02*
Y31016D01*
Y28852D02*
X15184Y28441D01*
X15647D01*
X14521Y5756D02*
Y7904D01*
X14094Y8331D02*
X14521Y7904D01*
X13647Y8331D02*
X14094D01*
D48*
X6135Y15449D02*
X23159D01*
X23159Y23323D02*
Y24537D01*
X22265Y25431D02*
X23159Y24537D01*
X14515Y25431D02*
X22265D01*
X13647Y24563D02*
X14515Y25431D01*
X13647Y23323D02*
Y24563D01*
X13647Y23323D02*
X13647Y23323D01*
X6135Y23323D02*
X13647D01*
X23159Y15449D02*
X23159Y15449D01*
D49*
X16435Y8331D02*
D03*
X12860Y28441D02*
D03*
D50*
X10521Y3197D02*
D03*
X18773Y33575D02*
D03*
X22710Y32079D02*
D03*
X6584Y4693D02*
D03*
D51*
X11584Y3197D02*
D03*
X17710Y33575D02*
D03*
D52*
X12647Y3197D02*
D03*
X16647Y33575D02*
D03*
X15647Y6756D02*
D03*
X12647Y33575D02*
D03*
X16647Y32079D02*
D03*
X12647D02*
D03*
X14773Y31016D02*
D03*
X18773D02*
D03*
X9647Y36157D02*
D03*
Y32157D02*
D03*
X19647Y614D02*
D03*
Y4614D02*
D03*
X17647Y30016D02*
D03*
X13647D02*
D03*
X16647Y3197D02*
D03*
X11647Y6756D02*
D03*
X12647Y4693D02*
D03*
X16647D02*
D03*
X14521Y5756D02*
D03*
X10521D02*
D03*
D53*
X15647Y803D02*
D03*
X13647Y35968D02*
D03*
X7876Y33575D02*
D03*
X21419Y3197D02*
D03*
D54*
X15647Y8331D02*
D03*
X13647Y28441D02*
D03*
D55*
X16647Y6756D02*
D03*
X9647Y30016D02*
D03*
X12647Y31016D02*
D03*
Y30016D02*
D03*
X19647Y6756D02*
D03*
X16647Y5756D02*
D03*
D56*
X15647Y1803D02*
D03*
X13647Y34969D02*
D03*
X7876Y34575D02*
D03*
X21419Y2197D02*
D03*
D57*
X15647Y13449D02*
D03*
X13647Y23323D02*
D03*
D58*
X15647Y21323D02*
D03*
X6135Y19386D02*
D03*
X23159Y19386D02*
D03*
X17647Y23323D02*
D03*
X11647Y13449D02*
D03*
X13647Y15449D02*
D03*
X23159Y17417D02*
D03*
Y21354D02*
D03*
Y23323D02*
D03*
X6135Y21354D02*
D03*
Y17417D02*
D03*
Y15449D02*
D03*
D59*
X17710Y32079D02*
D03*
X11584Y4693D02*
D03*
D60*
X15647Y28441D02*
D03*
X16647D02*
D03*
X17647D02*
D03*
X13647Y8331D02*
D03*
X12647D02*
D03*
X11647D02*
D03*
D61*
X23159Y15449D02*
D03*
X6135Y23323D02*
D03*
D62*
X22710Y33575D02*
D03*
X18773Y32079D02*
D03*
X6584Y3197D02*
D03*
X10521Y4693D02*
D03*
D63*
X9647Y31016D02*
D03*
X19647Y5756D02*
D03*
D64*
X1969Y34803D02*
D03*
X27362D02*
D03*
Y1969D02*
D03*
X1969D02*
D03*
D65*
X18647Y6756D02*
D03*
X10647Y30016D02*
D03*
X17647Y6756D02*
D03*
X11647Y30016D02*
D03*
M02*
