G04*
G04 #@! TF.GenerationSoftware,Altium Limited,Altium Designer,23.9.2 (47)*
G04*
G04 Layer_Color=16711935*
%FSLAX24Y24*%
%MOIN*%
G70*
G04*
G04 #@! TF.SameCoordinates,AAFFF98D-1960-493D-9132-569EA71A65ED*
G04*
G04*
G04 #@! TF.FilePolarity,Positive*
G04*
G01*
G75*
%ADD11C,0.0079*%
%ADD68C,0.0060*%
D11*
X0Y-669D02*
X600Y-469D01*
X0Y-669D02*
X600Y-869D01*
X28731D02*
X29331Y-669D01*
X28731Y-469D02*
X29331Y-669D01*
X0D02*
X12396D01*
X16615D02*
X29331D01*
X0Y-769D02*
Y-139D01*
X29331Y-769D02*
Y-139D01*
X-1135Y600D02*
X-935Y0D01*
X-735Y600D01*
X-935Y36772D02*
X-735Y36172D01*
X-1135D02*
X-935Y36772D01*
Y0D02*
Y16116D01*
Y20335D02*
Y36772D01*
X-1035Y0D02*
X-139D01*
X-1035Y36772D02*
X-139D01*
D68*
X12556Y-429D02*
X12956D01*
Y-529D01*
X12556Y-929D01*
Y-1029D01*
X13456D02*
Y-429D01*
X13156Y-729D01*
X13556D01*
X13756Y-1029D02*
Y-929D01*
X13856D01*
Y-1029D01*
X13756D01*
X14655Y-429D02*
X14255D01*
Y-729D01*
X14455Y-629D01*
X14555D01*
X14655Y-729D01*
Y-929D01*
X14555Y-1029D01*
X14355D01*
X14255Y-929D01*
X14855Y-529D02*
X14955Y-429D01*
X15155D01*
X15255Y-529D01*
Y-929D01*
X15155Y-1029D01*
X14955D01*
X14855Y-929D01*
Y-529D01*
X15455Y-1029D02*
Y-629D01*
X15555D01*
X15655Y-729D01*
Y-1029D01*
Y-729D01*
X15755Y-629D01*
X15855Y-729D01*
Y-1029D01*
X16055D02*
Y-629D01*
X16155D01*
X16255Y-729D01*
Y-1029D01*
Y-729D01*
X16355Y-629D01*
X16455Y-729D01*
Y-1029D01*
X-675Y16276D02*
X-575Y16376D01*
Y16576D01*
X-675Y16676D01*
X-1075D01*
X-1175Y16576D01*
Y16376D01*
X-1075Y16276D01*
X-975D01*
X-875Y16376D01*
Y16676D01*
X-1075Y16876D02*
X-1175Y16976D01*
Y17176D01*
X-1075Y17276D01*
X-975D01*
X-875Y17176D01*
Y17076D01*
Y17176D01*
X-775Y17276D01*
X-675D01*
X-575Y17176D01*
Y16976D01*
X-675Y16876D01*
X-575Y17476D02*
X-675D01*
Y17576D01*
X-575D01*
Y17476D01*
Y18276D02*
X-1175D01*
X-875Y17976D01*
Y18376D01*
X-1075Y18576D02*
X-1175Y18676D01*
Y18876D01*
X-1075Y18976D01*
X-675D01*
X-575Y18876D01*
Y18676D01*
X-675Y18576D01*
X-1075D01*
X-575Y19176D02*
X-975D01*
Y19275D01*
X-875Y19375D01*
X-575D01*
X-875D01*
X-975Y19475D01*
X-875Y19575D01*
X-575D01*
Y19775D02*
X-975D01*
Y19875D01*
X-875Y19975D01*
X-575D01*
X-875D01*
X-975Y20075D01*
X-875Y20175D01*
X-575D01*
M02*
