G04*
G04 #@! TF.GenerationSoftware,Altium Limited,Altium Designer,23.9.2 (47)*
G04*
G04 Layer_Color=16711935*
%FSLAX24Y24*%
%MOIN*%
G70*
G04*
G04 #@! TF.SameCoordinates,AAFFF98D-1960-493D-9132-569EA71A65ED*
G04*
G04*
G04 #@! TF.FilePolarity,Negative*
G04*
G01*
G75*
%ADD31R,0.0552X0.0749*%
%ADD32R,0.1064X0.1064*%
%ADD33O,0.0671X0.0474*%
%ADD34C,0.0867*%
%ADD35R,0.1261X0.0671*%
%ADD36O,0.0552X0.0749*%
%ADD37C,0.0789*%
%ADD38O,0.1261X0.0671*%
%ADD39R,0.1655X0.1655*%
%ADD40C,0.1655*%
%ADD41R,0.0671X0.0474*%
%ADD42O,0.0552X0.0867*%
%ADD43R,0.1655X0.1655*%
%ADD44C,0.1064*%
%ADD45R,0.0789X0.0789*%
%ADD46C,0.2442*%
%ADD66R,0.0572X0.0572*%
D31*
X16435Y8331D02*
D03*
X12860Y28441D02*
D03*
D32*
X10521Y3197D02*
D03*
X18773Y33575D02*
D03*
X22710Y32079D02*
D03*
X6584Y4693D02*
D03*
D33*
X11584Y3197D02*
D03*
X17710Y33575D02*
D03*
D34*
X12647Y3197D02*
D03*
X16647Y33575D02*
D03*
X15647Y6756D02*
D03*
X12647Y33575D02*
D03*
X16647Y32079D02*
D03*
X12647D02*
D03*
X14773Y31016D02*
D03*
X18773D02*
D03*
X9647Y36157D02*
D03*
Y32157D02*
D03*
X19647Y614D02*
D03*
Y4614D02*
D03*
X17647Y30016D02*
D03*
X13647D02*
D03*
X16647Y3197D02*
D03*
X11647Y6756D02*
D03*
X12647Y4693D02*
D03*
X16647D02*
D03*
X14521Y5756D02*
D03*
X10521D02*
D03*
D35*
X15647Y803D02*
D03*
X13647Y35968D02*
D03*
X7876Y33575D02*
D03*
X21419Y3197D02*
D03*
D36*
X15647Y8331D02*
D03*
X13647Y28441D02*
D03*
D37*
X16647Y6756D02*
D03*
X9647Y30016D02*
D03*
X12647Y31016D02*
D03*
Y30016D02*
D03*
X19647Y6756D02*
D03*
X16647Y5756D02*
D03*
D38*
X15647Y1803D02*
D03*
X13647Y34969D02*
D03*
X7876Y34575D02*
D03*
X21419Y2197D02*
D03*
D39*
X15647Y13449D02*
D03*
X13647Y23323D02*
D03*
D40*
X15647Y21323D02*
D03*
X6135Y19386D02*
D03*
X23159Y19386D02*
D03*
X17647Y23323D02*
D03*
X11647Y13449D02*
D03*
X13647Y15449D02*
D03*
X23159Y17417D02*
D03*
Y21354D02*
D03*
Y23323D02*
D03*
X6135Y21354D02*
D03*
Y17417D02*
D03*
Y15449D02*
D03*
D41*
X17710Y32079D02*
D03*
X11584Y4693D02*
D03*
D42*
X15647Y28441D02*
D03*
X16647D02*
D03*
X17647D02*
D03*
X13647Y8331D02*
D03*
X12647D02*
D03*
X11647D02*
D03*
D43*
X23159Y15449D02*
D03*
X6135Y23323D02*
D03*
D44*
X22710Y33575D02*
D03*
X18773Y32079D02*
D03*
X6584Y3197D02*
D03*
X10521Y4693D02*
D03*
D45*
X9647Y31016D02*
D03*
X19647Y5756D02*
D03*
D46*
X1969Y34803D02*
D03*
X27362D02*
D03*
Y1969D02*
D03*
X1969D02*
D03*
D66*
X18647Y6756D02*
D03*
X10647Y30016D02*
D03*
X17647Y6756D02*
D03*
X11647Y30016D02*
D03*
M02*
