%TF.GenerationSoftware,KiCad,Pcbnew,7.0.7*%
%TF.CreationDate,2023-09-20T11:02:49-05:00*%
%TF.ProjectId,SCR,5343522e-6b69-4636-9164-5f7063625858,rev?*%
%TF.SameCoordinates,Original*%
%TF.FileFunction,Soldermask,Top*%
%TF.FilePolarity,Negative*%
%FSLAX46Y46*%
G04 Gerber Fmt 4.6, Leading zero omitted, Abs format (unit mm)*
G04 Created by KiCad (PCBNEW 7.0.7) date 2023-09-20 11:02:49*
%MOMM*%
%LPD*%
G01*
G04 APERTURE LIST*
G04 Aperture macros list*
%AMRoundRect*
0 Rectangle with rounded corners*
0 $1 Rounding radius*
0 $2 $3 $4 $5 $6 $7 $8 $9 X,Y pos of 4 corners*
0 Add a 4 corners polygon primitive as box body*
4,1,4,$2,$3,$4,$5,$6,$7,$8,$9,$2,$3,0*
0 Add four circle primitives for the rounded corners*
1,1,$1+$1,$2,$3*
1,1,$1+$1,$4,$5*
1,1,$1+$1,$6,$7*
1,1,$1+$1,$8,$9*
0 Add four rect primitives between the rounded corners*
20,1,$1+$1,$2,$3,$4,$5,0*
20,1,$1+$1,$4,$5,$6,$7,0*
20,1,$1+$1,$6,$7,$8,$9,0*
20,1,$1+$1,$8,$9,$2,$3,0*%
G04 Aperture macros list end*
%ADD10C,1.600000*%
%ADD11O,1.600000X1.600000*%
%ADD12R,1.600000X1.600000*%
%ADD13R,1.905000X2.000000*%
%ADD14O,1.905000X2.000000*%
%ADD15R,1.500000X1.500000*%
%ADD16C,1.500000*%
%ADD17R,2.600000X2.600000*%
%ADD18C,2.600000*%
%ADD19R,1.700000X1.700000*%
%ADD20O,1.700000X1.700000*%
%ADD21C,4.000000*%
%ADD22C,2.400000*%
%ADD23RoundRect,0.250000X-0.620000X-0.845000X0.620000X-0.845000X0.620000X0.845000X-0.620000X0.845000X0*%
%ADD24O,1.740000X2.190000*%
%ADD25C,1.440000*%
G04 APERTURE END LIST*
D10*
%TO.C,R10*%
X119644000Y-173638629D03*
D11*
X129804000Y-173638629D03*
%TD*%
D10*
%TO.C,C8*%
X135168000Y-130556000D03*
X140168000Y-130556000D03*
%TD*%
%TO.C,R30*%
X162834000Y-134610000D03*
D11*
X172994000Y-134610000D03*
%TD*%
D10*
%TO.C,R54*%
X284988000Y-138684000D03*
D11*
X274828000Y-138684000D03*
%TD*%
D10*
%TO.C,C13*%
X140168000Y-161354267D03*
X135168000Y-161354267D03*
%TD*%
D12*
%TO.C,D6*%
X171724000Y-155946000D03*
D11*
X164104000Y-155946000D03*
%TD*%
D13*
%TO.C,U8*%
X233415200Y-117064181D03*
D14*
X235955200Y-117064181D03*
X238495200Y-117064181D03*
%TD*%
D10*
%TO.C,R48*%
X261620000Y-115570000D03*
D11*
X251460000Y-115570000D03*
%TD*%
D10*
%TO.C,R47*%
X261620000Y-123190000D03*
D11*
X251460000Y-123190000D03*
%TD*%
D12*
%TO.C,D3*%
X204734000Y-123439000D03*
D11*
X197114000Y-123439000D03*
%TD*%
D12*
%TO.C,U4*%
X187960000Y-160020000D03*
D11*
X187960000Y-157480000D03*
X187960000Y-154940000D03*
X187960000Y-152400000D03*
X187960000Y-149860000D03*
X187960000Y-147320000D03*
X187960000Y-144780000D03*
X180340000Y-144780000D03*
X180340000Y-147320000D03*
X180340000Y-149860000D03*
X180340000Y-152400000D03*
X180340000Y-154940000D03*
X180340000Y-157480000D03*
X180340000Y-160020000D03*
%TD*%
D10*
%TO.C,R62*%
X284988000Y-169164000D03*
D11*
X274828000Y-169164000D03*
%TD*%
D10*
%TO.C,C10*%
X135128000Y-142927724D03*
X140128000Y-142927724D03*
%TD*%
%TO.C,R25*%
X179588000Y-178557000D03*
D11*
X189748000Y-178557000D03*
%TD*%
D10*
%TO.C,R52*%
X261620000Y-130802000D03*
D11*
X251460000Y-130802000D03*
%TD*%
D12*
%TO.C,D1*%
X171724000Y-139690000D03*
D11*
X164104000Y-139690000D03*
%TD*%
D10*
%TO.C,R61*%
X284988000Y-161274000D03*
D11*
X274828000Y-161274000D03*
%TD*%
D10*
%TO.C,R23*%
X164348000Y-184907000D03*
D11*
X174508000Y-184907000D03*
%TD*%
D15*
%TO.C,Q1*%
X265684000Y-108204000D03*
D16*
X268224000Y-105664000D03*
X270764000Y-108204000D03*
%TD*%
D10*
%TO.C,R55*%
X261620000Y-153662000D03*
D11*
X251460000Y-153662000D03*
%TD*%
D10*
%TO.C,R24*%
X179588000Y-172207000D03*
D11*
X189748000Y-172207000D03*
%TD*%
D17*
%TO.C,J8*%
X77998000Y-127067181D03*
D18*
X77998000Y-132147181D03*
X77998000Y-137227181D03*
X77998000Y-142307181D03*
X77998000Y-147387181D03*
X77998000Y-152467181D03*
X77998000Y-157547181D03*
X77998000Y-162627181D03*
X77998000Y-167707181D03*
X77998000Y-172787181D03*
X77998000Y-177867181D03*
%TD*%
D10*
%TO.C,C17*%
X169632000Y-128524000D03*
X164632000Y-128524000D03*
%TD*%
%TO.C,R32*%
X195844000Y-118359000D03*
D11*
X206004000Y-118359000D03*
%TD*%
D10*
%TO.C,R27*%
X194828000Y-172207000D03*
D11*
X204988000Y-172207000D03*
%TD*%
D10*
%TO.C,R56*%
X261620000Y-146042000D03*
D11*
X251460000Y-146042000D03*
%TD*%
D10*
%TO.C,C15*%
X153456000Y-189484000D03*
X158456000Y-189484000D03*
%TD*%
%TO.C,C20*%
X203160000Y-144780000D03*
X198160000Y-144780000D03*
%TD*%
D19*
%TO.C,J4-J2*%
X343789000Y-102065381D03*
D20*
X346329000Y-102065381D03*
X343789000Y-104605381D03*
X346329000Y-104605381D03*
X343789000Y-107145381D03*
X346329000Y-107145381D03*
X343789000Y-109685381D03*
X346329000Y-109685381D03*
X343789000Y-112225381D03*
X346329000Y-112225381D03*
X343789000Y-114765381D03*
X346329000Y-114765381D03*
X343789000Y-117305381D03*
X346329000Y-117305381D03*
X343789000Y-119845381D03*
X346329000Y-119845381D03*
X343789000Y-122385381D03*
X346329000Y-122385381D03*
X343789000Y-124925381D03*
X346329000Y-124925381D03*
%TD*%
D10*
%TO.C,R31*%
X162316000Y-118359000D03*
D11*
X172476000Y-118359000D03*
%TD*%
D15*
%TO.C,Q12*%
X265684000Y-176784000D03*
D16*
X268224000Y-174244000D03*
X270764000Y-176784000D03*
%TD*%
D15*
%TO.C,Q11*%
X265684000Y-184404000D03*
D16*
X268224000Y-181864000D03*
X270764000Y-184404000D03*
%TD*%
D10*
%TO.C,C9*%
X135168000Y-136785543D03*
X140168000Y-136785543D03*
%TD*%
%TO.C,R33*%
X195844000Y-150363000D03*
D11*
X206004000Y-150363000D03*
%TD*%
D10*
%TO.C,C30*%
X186624000Y-114818000D03*
X181624000Y-114818000D03*
%TD*%
D12*
%TO.C,U2*%
X151912000Y-170678000D03*
D11*
X151912000Y-173218000D03*
X151912000Y-175758000D03*
X151912000Y-178298000D03*
X151912000Y-180838000D03*
X151912000Y-183378000D03*
X151912000Y-185918000D03*
X159532000Y-185918000D03*
X159532000Y-183378000D03*
X159532000Y-180838000D03*
X159532000Y-178298000D03*
X159532000Y-175758000D03*
X159532000Y-173218000D03*
X159532000Y-170678000D03*
%TD*%
D21*
%TO.C,REF\u002A\u002A*%
X353360000Y-92524000D03*
%TD*%
D10*
%TO.C,C31*%
X181604000Y-141198000D03*
X186604000Y-141198000D03*
%TD*%
D12*
%TO.C,D4*%
X204734000Y-155443000D03*
D11*
X197114000Y-155443000D03*
%TD*%
D22*
%TO.C,C2*%
X111126000Y-145780499D03*
X96126000Y-145780499D03*
%TD*%
D10*
%TO.C,R35*%
X162834000Y-150866000D03*
D11*
X172994000Y-150866000D03*
%TD*%
D10*
%TO.C,R19*%
X146304000Y-155212086D03*
D11*
X156464000Y-155212086D03*
%TD*%
D10*
%TO.C,R44*%
X261620000Y-100330000D03*
D11*
X251460000Y-100330000D03*
%TD*%
D22*
%TO.C,C1*%
X111126000Y-120508833D03*
X96126000Y-120508833D03*
%TD*%
D19*
%TO.C,J8-J6*%
X343789000Y-165090381D03*
D20*
X346329000Y-165090381D03*
X343789000Y-167630381D03*
X346329000Y-167630381D03*
X343789000Y-170170381D03*
X346329000Y-170170381D03*
X343789000Y-172710381D03*
X346329000Y-172710381D03*
X343789000Y-175250381D03*
X346329000Y-175250381D03*
X343789000Y-177790381D03*
X346329000Y-177790381D03*
X343789000Y-180330381D03*
X346329000Y-180330381D03*
X343789000Y-182870381D03*
X346329000Y-182870381D03*
X343789000Y-185410381D03*
X346329000Y-185410381D03*
X343789000Y-187950381D03*
X346329000Y-187950381D03*
%TD*%
D10*
%TO.C,C33*%
X219924000Y-140716000D03*
X214924000Y-140716000D03*
%TD*%
%TO.C,R39*%
X230632000Y-161544000D03*
D11*
X240792000Y-161544000D03*
%TD*%
D10*
%TO.C,C34*%
X220432000Y-167132000D03*
X215432000Y-167132000D03*
%TD*%
%TO.C,R11*%
X119136000Y-185923000D03*
D11*
X129296000Y-185923000D03*
%TD*%
D12*
%TO.C,U1*%
X137180000Y-170678000D03*
D11*
X137180000Y-173218000D03*
X137180000Y-175758000D03*
X137180000Y-178298000D03*
X137180000Y-180838000D03*
X137180000Y-183378000D03*
X137180000Y-185918000D03*
X144800000Y-185918000D03*
X144800000Y-183378000D03*
X144800000Y-180838000D03*
X144800000Y-178298000D03*
X144800000Y-175758000D03*
X144800000Y-173218000D03*
X144800000Y-170678000D03*
%TD*%
D15*
%TO.C,Q9*%
X265684000Y-169164000D03*
D16*
X268224000Y-166624000D03*
X270764000Y-169164000D03*
%TD*%
D10*
%TO.C,R2*%
X119644000Y-142927724D03*
D11*
X129804000Y-142927724D03*
%TD*%
D22*
%TO.C,C4*%
X111126000Y-171052165D03*
X96126000Y-171052165D03*
%TD*%
D19*
%TO.C,J1-J3*%
X299861600Y-102115381D03*
D20*
X302401600Y-102115381D03*
X299861600Y-104655381D03*
X302401600Y-104655381D03*
X299861600Y-107195381D03*
X302401600Y-107195381D03*
X299861600Y-109735381D03*
X302401600Y-109735381D03*
X299861600Y-112275381D03*
X302401600Y-112275381D03*
X299861600Y-114815381D03*
X302401600Y-114815381D03*
X299861600Y-117355381D03*
X302401600Y-117355381D03*
X299861600Y-119895381D03*
X302401600Y-119895381D03*
X299861600Y-122435381D03*
X302401600Y-122435381D03*
X299861600Y-124975381D03*
X302401600Y-124975381D03*
%TD*%
D10*
%TO.C,C18*%
X203160000Y-128524000D03*
X198160000Y-128524000D03*
%TD*%
%TO.C,C24*%
X291672000Y-180330381D03*
X296672000Y-180330381D03*
%TD*%
%TO.C,R28*%
X194828000Y-178557000D03*
D11*
X204988000Y-178557000D03*
%TD*%
D21*
%TO.C,REF\u002A\u002A*%
X353360000Y-192624000D03*
%TD*%
D10*
%TO.C,R40*%
X230632000Y-167894000D03*
D11*
X240792000Y-167894000D03*
%TD*%
D10*
%TO.C,R60*%
X261620000Y-161282000D03*
D11*
X251460000Y-161282000D03*
%TD*%
D10*
%TO.C,R42*%
X230632000Y-174244000D03*
D11*
X240792000Y-174244000D03*
%TD*%
D10*
%TO.C,C16*%
X170140000Y-144770000D03*
X165140000Y-144770000D03*
%TD*%
%TO.C,C21*%
X170140000Y-161026000D03*
X165140000Y-161026000D03*
%TD*%
D15*
%TO.C,Q10*%
X265684000Y-161544000D03*
D16*
X268224000Y-159004000D03*
X270764000Y-161544000D03*
%TD*%
D10*
%TO.C,R18*%
X146304000Y-124501181D03*
D11*
X156464000Y-124501181D03*
%TD*%
D10*
%TO.C,R7*%
X119644000Y-124501181D03*
D11*
X129804000Y-124501181D03*
%TD*%
D10*
%TO.C,R43*%
X261620000Y-107950000D03*
D11*
X251460000Y-107950000D03*
%TD*%
D10*
%TO.C,R17*%
X146304000Y-149069905D03*
D11*
X156464000Y-149069905D03*
%TD*%
D23*
%TO.C,J6*%
X148478000Y-104217181D03*
D24*
X151018000Y-104217181D03*
%TD*%
D12*
%TO.C,U6*%
X213624000Y-144521000D03*
D11*
X213624000Y-147061000D03*
X213624000Y-149601000D03*
X213624000Y-152141000D03*
X213624000Y-154681000D03*
X213624000Y-157221000D03*
X213624000Y-159761000D03*
X221244000Y-159761000D03*
X221244000Y-157221000D03*
X221244000Y-154681000D03*
X221244000Y-152141000D03*
X221244000Y-149601000D03*
X221244000Y-147061000D03*
X221244000Y-144521000D03*
%TD*%
D17*
%TO.C,J7*%
X132812000Y-105862000D03*
D18*
X127812000Y-105862000D03*
%TD*%
D10*
%TO.C,R6*%
X119644000Y-130643362D03*
D11*
X129804000Y-130643362D03*
%TD*%
D23*
%TO.C,J1*%
X233728000Y-104217181D03*
D24*
X236268000Y-104217181D03*
%TD*%
D21*
%TO.C,REF\u002A\u002A*%
X73360000Y-92624000D03*
%TD*%
D10*
%TO.C,R13*%
X146304000Y-118359000D03*
D11*
X156464000Y-118359000D03*
%TD*%
D10*
%TO.C,R5*%
X119644000Y-179780810D03*
D11*
X129804000Y-179780810D03*
%TD*%
D10*
%TO.C,C12*%
X135168000Y-124501181D03*
X140168000Y-124501181D03*
%TD*%
%TO.C,C7*%
X140198000Y-118359000D03*
X135198000Y-118359000D03*
%TD*%
%TO.C,R45*%
X284988000Y-100322000D03*
D11*
X274828000Y-100322000D03*
%TD*%
D10*
%TO.C,R65*%
X284988000Y-176514000D03*
D11*
X274828000Y-176514000D03*
%TD*%
D10*
%TO.C,C26*%
X335729600Y-117305381D03*
X340729600Y-117305381D03*
%TD*%
D23*
%TO.C,J4*%
X216678000Y-104217181D03*
D24*
X219218000Y-104217181D03*
%TD*%
D10*
%TO.C,R64*%
X261620000Y-176522000D03*
D11*
X251460000Y-176522000D03*
%TD*%
D10*
%TO.C,R37*%
X230632000Y-148844000D03*
D11*
X240792000Y-148844000D03*
%TD*%
D22*
%TO.C,C6*%
X111126000Y-133144666D03*
X96126000Y-133144666D03*
%TD*%
D12*
%TO.C,D5*%
X204734000Y-139695000D03*
D11*
X197114000Y-139695000D03*
%TD*%
D22*
%TO.C,C3*%
X111126000Y-158416332D03*
X96126000Y-158416332D03*
%TD*%
D10*
%TO.C,R1*%
X119644000Y-118359000D03*
D11*
X129804000Y-118359000D03*
%TD*%
D10*
%TO.C,C23*%
X310500400Y-112275381D03*
X305500400Y-112275381D03*
%TD*%
D15*
%TO.C,Q3*%
X265684000Y-123444000D03*
D16*
X268224000Y-120904000D03*
X270764000Y-123444000D03*
%TD*%
D10*
%TO.C,R29*%
X194828000Y-184907000D03*
D11*
X204988000Y-184907000D03*
%TD*%
D10*
%TO.C,R12*%
X119644000Y-136785543D03*
D11*
X129804000Y-136785543D03*
%TD*%
D23*
%TO.C,J2*%
X182578000Y-104217181D03*
D24*
X185118000Y-104217181D03*
%TD*%
D15*
%TO.C,Q8*%
X265684000Y-146304000D03*
D16*
X268224000Y-143764000D03*
X270764000Y-146304000D03*
%TD*%
D19*
%TO.C,J5-J7*%
X299861600Y-165090381D03*
D20*
X302401600Y-165090381D03*
X299861600Y-167630381D03*
X302401600Y-167630381D03*
X299861600Y-170170381D03*
X302401600Y-170170381D03*
X299861600Y-172710381D03*
X302401600Y-172710381D03*
X299861600Y-175250381D03*
X302401600Y-175250381D03*
X299861600Y-177790381D03*
X302401600Y-177790381D03*
X299861600Y-180330381D03*
X302401600Y-180330381D03*
X299861600Y-182870381D03*
X302401600Y-182870381D03*
X299861600Y-185410381D03*
X302401600Y-185410381D03*
X299861600Y-187950381D03*
X302401600Y-187950381D03*
%TD*%
D15*
%TO.C,Q5*%
X265684000Y-138684000D03*
D16*
X268224000Y-136144000D03*
X270764000Y-138684000D03*
%TD*%
D10*
%TO.C,R20*%
X156464000Y-161354267D03*
D11*
X146304000Y-161354267D03*
%TD*%
D10*
%TO.C,R36*%
X230632000Y-142494000D03*
D11*
X240792000Y-142494000D03*
%TD*%
D10*
%TO.C,R15*%
X146304000Y-136785543D03*
D11*
X156464000Y-136785543D03*
%TD*%
D10*
%TO.C,R9*%
X119644000Y-161354267D03*
D11*
X129804000Y-161354267D03*
%TD*%
D10*
%TO.C,R46*%
X284988000Y-108204000D03*
D11*
X274828000Y-108204000D03*
%TD*%
D23*
%TO.C,J5*%
X199628000Y-104217181D03*
D24*
X202168000Y-104217181D03*
%TD*%
D25*
%TO.C,RV1*%
X238252000Y-182880000D03*
X235712000Y-182880000D03*
X233172000Y-182880000D03*
%TD*%
D10*
%TO.C,R22*%
X164348000Y-178557000D03*
D11*
X174508000Y-178557000D03*
%TD*%
D10*
%TO.C,C29*%
X305500400Y-117355381D03*
X310500400Y-117355381D03*
%TD*%
%TO.C,R58*%
X284988000Y-153924000D03*
D11*
X274828000Y-153924000D03*
%TD*%
D12*
%TO.C,C35*%
X229713621Y-127508000D03*
D10*
X232213621Y-127508000D03*
%TD*%
%TO.C,C11*%
X135168000Y-149069905D03*
X140168000Y-149069905D03*
%TD*%
%TO.C,R50*%
X284988000Y-123444000D03*
D11*
X274828000Y-123444000D03*
%TD*%
D10*
%TO.C,C19*%
X203160000Y-160528000D03*
X198160000Y-160528000D03*
%TD*%
%TO.C,C28*%
X354394800Y-114765381D03*
X349394800Y-114765381D03*
%TD*%
%TO.C,R49*%
X284988000Y-115562000D03*
D11*
X274828000Y-115562000D03*
%TD*%
D12*
%TO.C,U7*%
X214132000Y-170683000D03*
D11*
X214132000Y-173223000D03*
X214132000Y-175763000D03*
X214132000Y-178303000D03*
X214132000Y-180843000D03*
X214132000Y-183383000D03*
X214132000Y-185923000D03*
X221752000Y-185923000D03*
X221752000Y-183383000D03*
X221752000Y-180843000D03*
X221752000Y-178303000D03*
X221752000Y-175763000D03*
X221752000Y-173223000D03*
X221752000Y-170683000D03*
%TD*%
D15*
%TO.C,Q4*%
X265684000Y-115824000D03*
D16*
X268224000Y-113284000D03*
X270764000Y-115824000D03*
%TD*%
D10*
%TO.C,R8*%
X119644000Y-149069905D03*
D11*
X129804000Y-149069905D03*
%TD*%
D10*
%TO.C,R57*%
X284988000Y-146034000D03*
D11*
X274828000Y-146034000D03*
%TD*%
D22*
%TO.C,C5*%
X111126000Y-183688000D03*
X96126000Y-183688000D03*
%TD*%
D10*
%TO.C,R41*%
X230632000Y-155194000D03*
D11*
X240792000Y-155194000D03*
%TD*%
D10*
%TO.C,R34*%
X195844000Y-134615000D03*
D11*
X206004000Y-134615000D03*
%TD*%
D10*
%TO.C,C32*%
X220432000Y-114808000D03*
X215432000Y-114808000D03*
%TD*%
%TO.C,R3*%
X119644000Y-155212086D03*
D11*
X129804000Y-155212086D03*
%TD*%
D10*
%TO.C,R4*%
X119644000Y-167496448D03*
D11*
X129804000Y-167496448D03*
%TD*%
D12*
%TO.C,U5*%
X214132000Y-118359000D03*
D11*
X214132000Y-120899000D03*
X214132000Y-123439000D03*
X214132000Y-125979000D03*
X214132000Y-128519000D03*
X214132000Y-131059000D03*
X214132000Y-133599000D03*
X221752000Y-133599000D03*
X221752000Y-131059000D03*
X221752000Y-128519000D03*
X221752000Y-125979000D03*
X221752000Y-123439000D03*
X221752000Y-120899000D03*
X221752000Y-118359000D03*
%TD*%
D10*
%TO.C,R26*%
X179588000Y-184907000D03*
D11*
X189748000Y-184907000D03*
%TD*%
D10*
%TO.C,C27*%
X310449600Y-185410381D03*
X305449600Y-185410381D03*
%TD*%
%TO.C,R14*%
X146304000Y-130556000D03*
D11*
X156464000Y-130556000D03*
%TD*%
D10*
%TO.C,R51*%
X261620000Y-138422000D03*
D11*
X251460000Y-138422000D03*
%TD*%
D12*
%TO.C,U3*%
X180360000Y-118354000D03*
D11*
X180360000Y-120894000D03*
X180360000Y-123434000D03*
X180360000Y-125974000D03*
X180360000Y-128514000D03*
X180360000Y-131054000D03*
X180360000Y-133594000D03*
X187980000Y-133594000D03*
X187980000Y-131054000D03*
X187980000Y-128514000D03*
X187980000Y-125974000D03*
X187980000Y-123434000D03*
X187980000Y-120894000D03*
X187980000Y-118354000D03*
%TD*%
D10*
%TO.C,R59*%
X261620000Y-168902000D03*
D11*
X251460000Y-168902000D03*
%TD*%
D12*
%TO.C,C36*%
X239873621Y-127508000D03*
D10*
X242373621Y-127508000D03*
%TD*%
%TO.C,C22*%
X291926000Y-112275381D03*
X296926000Y-112275381D03*
%TD*%
%TO.C,C25*%
X291926000Y-104655381D03*
X296926000Y-104655381D03*
%TD*%
D15*
%TO.C,Q6*%
X265684000Y-131064000D03*
D16*
X268224000Y-128524000D03*
X270764000Y-131064000D03*
%TD*%
D10*
%TO.C,R66*%
X284988000Y-184404000D03*
D11*
X274828000Y-184404000D03*
%TD*%
D15*
%TO.C,Q2*%
X265684000Y-100584000D03*
D16*
X268224000Y-98044000D03*
X270764000Y-100584000D03*
%TD*%
D10*
%TO.C,R38*%
X230632000Y-136144000D03*
D11*
X240792000Y-136144000D03*
%TD*%
D10*
%TO.C,R21*%
X164348000Y-172207000D03*
D11*
X174508000Y-172207000D03*
%TD*%
D10*
%TO.C,C14*%
X140168000Y-155212086D03*
X135168000Y-155212086D03*
%TD*%
D21*
%TO.C,REF\u002A\u002A*%
X73260000Y-192624000D03*
%TD*%
D23*
%TO.C,J3*%
X165528000Y-104217181D03*
D24*
X168068000Y-104217181D03*
%TD*%
D15*
%TO.C,Q7*%
X265684000Y-153924000D03*
D16*
X268224000Y-151384000D03*
X270764000Y-153924000D03*
%TD*%
D10*
%TO.C,R63*%
X261620000Y-184142000D03*
D11*
X251460000Y-184142000D03*
%TD*%
D10*
%TO.C,R53*%
X284988000Y-130794000D03*
D11*
X274828000Y-130794000D03*
%TD*%
D10*
%TO.C,R16*%
X146304000Y-142927724D03*
D11*
X156464000Y-142927724D03*
%TD*%
D12*
%TO.C,D2*%
X171206000Y-123439000D03*
D11*
X163586000Y-123439000D03*
%TD*%
M02*
