M48
; DRILL file {KiCad 7.0.7} date Wed Sep 20 11:02:54 2023
; FORMAT={-:-/ absolute / inch / decimal}
; #@! TF.CreationDate,2023-09-20T11:02:54-05:00
; #@! TF.GenerationSoftware,Kicad,Pcbnew,7.0.7
; #@! TF.FileFunction,Plated,1,2,PTH
FMAT,2
INCH
; #@! TA.AperFunction,Plated,PTH,ViaDrill
T1C0.0157
; #@! TA.AperFunction,Plated,PTH,ComponentDrill
T2C0.0315
; #@! TA.AperFunction,Plated,PTH,ComponentDrill
T3C0.0394
; #@! TA.AperFunction,Plated,PTH,ComponentDrill
T4C0.0433
; #@! TA.AperFunction,Plated,PTH,ComponentDrill
T5C0.0469
; #@! TA.AperFunction,Plated,PTH,ComponentDrill
T6C0.0472
; #@! TA.AperFunction,Plated,PTH,ComponentDrill
T7C0.0512
%
G90
G05
T1
X5.32Y-7.36
X5.54Y-6.0
X5.6Y-7.48
X5.6436Y-6.4836
X5.88Y-4.94
X5.88Y-6.26
X6.36Y-6.56
X6.7016Y-3.6404
X6.82Y-7.38
X6.92Y-5.9
X7.16Y-6.44
X7.4216Y-3.6016
X8.0016Y-3.7192
X8.26Y-6.32
X8.26Y-6.44
X8.52Y-4.96
X8.58Y-6.56
X8.58Y-7.0
X8.6Y-6.02
X8.62Y-7.28
X8.6416Y-3.6816
X8.66Y-5.4
X8.84Y-6.66
X8.92Y-5.56
X9.0Y-7.16
X10.8816Y-3.5616
X10.94Y-6.58
X10.98Y-6.0
X11.02Y-5.42
X11.06Y-4.82
X11.1Y-4.22
X11.38Y-7.4
X13.0476Y-5.9896
T2
X4.6904Y-7.3198
X4.7104Y-4.6598
X4.7104Y-4.9016
X4.7104Y-5.1434
X4.7104Y-5.3853
X4.7104Y-5.6271
X4.7104Y-5.8689
X4.7104Y-6.1107
X4.7104Y-6.3525
X4.7104Y-6.5943
X4.7104Y-6.8362
X4.7104Y-7.078
X5.0904Y-7.3198
X5.1104Y-4.6598
X5.1104Y-4.9016
X5.1104Y-5.1434
X5.1104Y-5.3853
X5.1104Y-5.6271
X5.1104Y-5.8689
X5.1104Y-6.1107
X5.1104Y-6.3525
X5.1104Y-6.5943
X5.1104Y-6.8362
X5.1104Y-7.078
X5.32Y-5.6271
X5.3216Y-4.9016
X5.3216Y-5.14
X5.3216Y-5.3853
X5.3216Y-5.8689
X5.3216Y-6.1107
X5.3216Y-6.3525
X5.3228Y-4.6598
X5.4008Y-6.7196
X5.4008Y-6.8196
X5.4008Y-6.9196
X5.4008Y-7.0196
X5.4008Y-7.1196
X5.4008Y-7.2196
X5.4008Y-7.3196
X5.5169Y-5.6271
X5.5184Y-4.9016
X5.5184Y-5.14
X5.5184Y-5.3853
X5.5184Y-5.8689
X5.5184Y-6.1107
X5.5184Y-6.3525
X5.5196Y-4.6598
X5.7008Y-6.7196
X5.7008Y-6.8196
X5.7008Y-6.9196
X5.7008Y-7.0196
X5.7008Y-7.1196
X5.7008Y-7.2196
X5.7008Y-7.3196
X5.76Y-4.6598
X5.76Y-4.9016
X5.76Y-5.14
X5.76Y-5.3853
X5.76Y-5.6271
X5.76Y-5.8689
X5.76Y-6.1107
X5.76Y-6.3525
X5.9808Y-6.7196
X5.9808Y-6.8196
X5.9808Y-6.9196
X5.9808Y-7.0196
X5.9808Y-7.1196
X5.9808Y-7.2196
X5.9808Y-7.3196
X6.0416Y-7.46
X6.16Y-4.6598
X6.16Y-4.9016
X6.16Y-5.14
X6.16Y-5.3853
X6.16Y-5.6271
X6.16Y-5.8689
X6.16Y-6.1107
X6.16Y-6.3525
X6.2384Y-7.46
X6.2808Y-6.7196
X6.2808Y-6.8196
X6.2808Y-6.9196
X6.2808Y-7.0196
X6.2808Y-7.1196
X6.2808Y-7.2196
X6.2808Y-7.3196
X6.3904Y-4.6598
X6.4108Y-5.2996
X6.4108Y-5.9396
X6.4404Y-4.8598
X6.4608Y-5.4996
X6.4608Y-6.1396
X6.4704Y-6.7798
X6.4704Y-7.0298
X6.4704Y-7.2798
X6.4816Y-5.06
X6.5016Y-5.6996
X6.5016Y-6.3396
X6.6784Y-5.06
X6.6984Y-5.6996
X6.6984Y-6.3396
X6.7404Y-4.8598
X6.7608Y-5.4996
X6.7608Y-6.1396
X6.7904Y-4.6598
X6.8108Y-5.2996
X6.8108Y-5.9396
X6.8704Y-6.7798
X6.8704Y-7.0298
X6.8704Y-7.2798
X7.0704Y-6.7798
X7.0704Y-7.0298
X7.0704Y-7.2798
X7.1Y-5.7
X7.1Y-5.8
X7.1Y-5.9
X7.1Y-6.0
X7.1Y-6.1
X7.1Y-6.2
X7.1Y-6.3
X7.1008Y-4.6596
X7.1008Y-4.7596
X7.1008Y-4.8596
X7.1008Y-4.9596
X7.1008Y-5.0596
X7.1008Y-5.1596
X7.1008Y-5.2596
X7.1498Y-5.559
X7.1506Y-4.5204
X7.3466Y-5.559
X7.3474Y-4.5204
X7.4Y-5.7
X7.4Y-5.8
X7.4Y-5.9
X7.4Y-6.0
X7.4Y-6.1
X7.4Y-6.2
X7.4Y-6.3
X7.4008Y-4.6596
X7.4008Y-4.7596
X7.4008Y-4.8596
X7.4008Y-4.9596
X7.4008Y-5.0596
X7.4008Y-5.1596
X7.4008Y-5.2596
X7.4704Y-6.7798
X7.4704Y-7.0298
X7.4704Y-7.2798
X7.6704Y-6.7798
X7.6704Y-7.0298
X7.6704Y-7.2798
X7.7104Y-4.6598
X7.7104Y-5.2998
X7.7104Y-5.9198
X7.7604Y-4.8598
X7.7604Y-5.4998
X7.7604Y-6.1198
X7.8016Y-5.06
X7.8016Y-5.7
X7.8016Y-6.32
X7.9984Y-5.06
X7.9984Y-5.7
X7.9984Y-6.32
X8.0604Y-4.8598
X8.0604Y-5.4998
X8.0604Y-6.1198
X8.0704Y-6.7798
X8.0704Y-7.0298
X8.0704Y-7.2798
X8.1104Y-4.6598
X8.1104Y-5.2998
X8.1104Y-5.9198
X8.4104Y-5.6898
X8.4104Y-5.7898
X8.4104Y-5.8898
X8.4104Y-5.9898
X8.4104Y-6.0898
X8.4104Y-6.1898
X8.4104Y-6.2898
X8.4304Y-4.6598
X8.4304Y-4.7598
X8.4304Y-4.8598
X8.4304Y-4.9598
X8.4304Y-5.0598
X8.4304Y-5.1598
X8.4304Y-5.2598
X8.4304Y-6.7198
X8.4304Y-6.8198
X8.4304Y-6.9198
X8.4304Y-7.0198
X8.4304Y-7.1198
X8.4304Y-7.2198
X8.4304Y-7.3198
X8.4616Y-5.54
X8.4816Y-4.52
X8.4816Y-6.58
X8.6584Y-5.54
X8.6784Y-4.52
X8.6784Y-6.58
X8.7104Y-5.6898
X8.7104Y-5.7898
X8.7104Y-5.8898
X8.7104Y-5.9898
X8.7104Y-6.0898
X8.7104Y-6.1898
X8.7104Y-6.2898
X8.7304Y-4.6598
X8.7304Y-4.7598
X8.7304Y-4.8598
X8.7304Y-4.9598
X8.7304Y-5.0598
X8.7304Y-5.1598
X8.7304Y-5.2598
X8.7304Y-6.7198
X8.7304Y-6.8198
X8.7304Y-6.9198
X8.7304Y-7.0198
X8.7304Y-7.1198
X8.7304Y-7.2198
X8.7304Y-7.3198
X9.0438Y-5.02
X9.08Y-5.36
X9.08Y-5.61
X9.08Y-5.86
X9.08Y-6.11
X9.08Y-6.36
X9.08Y-6.61
X9.08Y-6.86
X9.1423Y-5.02
X9.18Y-7.2
X9.28Y-7.2
X9.38Y-7.2
X9.4438Y-5.02
X9.48Y-5.36
X9.48Y-5.61
X9.48Y-5.86
X9.48Y-6.11
X9.48Y-6.36
X9.48Y-6.61
X9.48Y-6.86
X9.5423Y-5.02
X9.9Y-3.95
X9.9Y-4.25
X9.9Y-4.55
X9.9Y-4.85
X9.9Y-5.1497
X9.9Y-5.4497
X9.9Y-5.7497
X9.9Y-6.0497
X9.9Y-6.3497
X9.9Y-6.6497
X9.9Y-6.9497
X9.9Y-7.2497
X10.3Y-3.95
X10.3Y-4.25
X10.3Y-4.55
X10.3Y-4.85
X10.3Y-5.1497
X10.3Y-5.4497
X10.3Y-5.7497
X10.3Y-6.0497
X10.3Y-6.3497
X10.3Y-6.6497
X10.3Y-6.9497
X10.3Y-7.2497
X10.46Y-3.96
X10.46Y-4.26
X10.46Y-4.56
X10.46Y-4.86
X10.46Y-5.16
X10.46Y-5.46
X10.46Y-5.76
X10.46Y-6.06
X10.46Y-6.36
X10.46Y-6.66
X10.46Y-6.96
X10.46Y-7.26
X10.56Y-3.86
X10.56Y-4.16
X10.56Y-4.46
X10.56Y-4.76
X10.56Y-5.06
X10.56Y-5.36
X10.56Y-5.66
X10.56Y-5.96
X10.56Y-6.26
X10.56Y-6.56
X10.56Y-6.86
X10.56Y-7.16
X10.66Y-3.96
X10.66Y-4.26
X10.66Y-4.56
X10.66Y-4.86
X10.66Y-5.16
X10.66Y-5.46
X10.66Y-5.76
X10.66Y-6.06
X10.66Y-6.36
X10.66Y-6.66
X10.66Y-6.96
X10.66Y-7.26
X10.82Y-3.9497
X10.82Y-4.26
X10.82Y-4.5497
X10.82Y-4.86
X10.82Y-5.1494
X10.82Y-5.46
X10.82Y-5.7494
X10.82Y-6.06
X10.82Y-6.3494
X10.82Y-6.66
X10.82Y-6.9494
X10.82Y-7.26
X11.22Y-3.9497
X11.22Y-4.26
X11.22Y-4.5497
X11.22Y-4.86
X11.22Y-5.1494
X11.22Y-5.46
X11.22Y-5.7494
X11.22Y-6.06
X11.22Y-6.3494
X11.22Y-6.66
X11.22Y-6.9494
X11.22Y-7.26
X11.4831Y-7.0996
X11.4931Y-4.1203
X11.4931Y-4.4203
X11.68Y-7.0996
X11.69Y-4.1203
X11.69Y-4.4203
X12.0256Y-7.2996
X12.0276Y-4.4203
X12.0276Y-4.6203
X12.2224Y-7.2996
X12.2244Y-4.4203
X12.2244Y-4.6203
X13.2177Y-4.6183
X13.4146Y-4.6183
X13.7557Y-4.5183
X13.9526Y-4.5183
T3
X11.8056Y-4.0203
X11.8056Y-4.1203
X11.8056Y-4.2203
X11.8056Y-4.3203
X11.8056Y-4.4203
X11.8056Y-4.5203
X11.8056Y-4.6203
X11.8056Y-4.7203
X11.8056Y-4.8203
X11.8056Y-4.9203
X11.8056Y-6.4996
X11.8056Y-6.5996
X11.8056Y-6.6996
X11.8056Y-6.7996
X11.8056Y-6.8996
X11.8056Y-6.9996
X11.8056Y-7.0996
X11.8056Y-7.1996
X11.8056Y-7.2996
X11.8056Y-7.3996
X11.9056Y-4.0203
X11.9056Y-4.1203
X11.9056Y-4.2203
X11.9056Y-4.3203
X11.9056Y-4.4203
X11.9056Y-4.5203
X11.9056Y-4.6203
X11.9056Y-4.7203
X11.9056Y-4.8203
X11.9056Y-4.9203
X11.9056Y-6.4996
X11.9056Y-6.5996
X11.9056Y-6.6996
X11.9056Y-6.7996
X11.9056Y-6.8996
X11.9056Y-6.9996
X11.9056Y-7.0996
X11.9056Y-7.1996
X11.9056Y-7.2996
X11.9056Y-7.3996
X13.535Y-4.0183
X13.535Y-4.1183
X13.535Y-4.2183
X13.535Y-4.3183
X13.535Y-4.4183
X13.535Y-4.5183
X13.535Y-4.6183
X13.535Y-4.7183
X13.535Y-4.8183
X13.535Y-4.9183
X13.535Y-6.4996
X13.535Y-6.5996
X13.535Y-6.6996
X13.535Y-6.7996
X13.535Y-6.8996
X13.535Y-6.9996
X13.535Y-7.0996
X13.535Y-7.1996
X13.535Y-7.2996
X13.535Y-7.3996
X13.635Y-4.0183
X13.635Y-4.1183
X13.635Y-4.2183
X13.635Y-4.3183
X13.635Y-4.4183
X13.635Y-4.5183
X13.635Y-4.6183
X13.635Y-4.7183
X13.635Y-4.8183
X13.635Y-4.9183
X13.635Y-6.4996
X13.635Y-6.5996
X13.635Y-6.6996
X13.635Y-6.7996
X13.635Y-6.8996
X13.635Y-6.9996
X13.635Y-7.0996
X13.635Y-7.1996
X13.635Y-7.2996
X13.635Y-7.3996
T4
X9.1896Y-4.6088
X9.2896Y-4.6088
X9.3896Y-4.6088
T5
X5.8456Y-4.103
X5.9456Y-4.103
X6.5169Y-4.103
X6.6169Y-4.103
X7.1881Y-4.103
X7.2881Y-4.103
X7.8594Y-4.103
X7.9594Y-4.103
X8.5306Y-4.103
X8.6306Y-4.103
X9.2019Y-4.103
X9.3019Y-4.103
T6
X3.7845Y-4.7444
X3.7845Y-5.2419
X3.7845Y-5.7394
X3.7845Y-6.2369
X3.7845Y-6.7343
X3.7845Y-7.2318
X4.375Y-4.7444
X4.375Y-5.2419
X4.375Y-5.7394
X4.375Y-6.2369
X4.375Y-6.7343
X4.375Y-7.2318
T7
X3.0708Y-5.0026
X3.0708Y-5.2026
X3.0708Y-5.4026
X3.0708Y-5.6026
X3.0708Y-5.8026
X3.0708Y-6.0026
X3.0708Y-6.2026
X3.0708Y-6.4026
X3.0708Y-6.6026
X3.0708Y-6.8026
X3.0708Y-7.0026
X5.032Y-4.1678
X5.2288Y-4.1678
T0
M30
